<?xml version="1.0" encoding="utf-8"?>
<!-- Generator: Adobe Illustrator 19.0.0, SVG Export Plug-In . SVG Version: 6.00 Build 0)  -->
<svg version="1.1" id="图层_1" xmlns="http://www.w3.org/2000/svg" xmlns:xlink="http://www.w3.org/1999/xlink" x="0px" y="0px"
	 viewBox="0 0 36 36" width="100" height="100" style="enable-background:new 0 0 36 36;" xml:space="preserve">
<style type="text/css">
	.st0{fill:#B5BDC9;}
	.st1{fill:#20ACDE;}
</style>
<g id="XMLID_264_">
	<circle id="XMLID_691_" class="st0" cx="18" cy="18.3" r="5.1"/>
	<path id="XMLID_267_" class="st0" d="M18,2.3c-8.8,0-16,7.2-16,16s7.2,16,16,16c8.8,0,16-7.2,16-16S26.8,2.3,18,2.3z M18,32.8
		c-8,0-14.5-6.5-14.5-14.5S10,3.8,18,3.8c8,0,14.5,6.5,14.5,14.5S26,32.8,18,32.8z"/>
	<g id="XMLID_262_">
		<path id="XMLID_263_" class="st1" d="M17.4,11.8c-1.5-3.1-2.9-4.6-3.8-5.3c-2.6,1-4.8,2.8-6.3,5.1c4.3,0.1,6,1.9,6,1.9
			C14.5,12.5,15.9,11.9,17.4,11.8z"/>
		<path id="XMLID_273_" class="st1" d="M19.5,11.9c1.5,0.4,2.8,1.4,3.7,2.5c0,0,2-2.6,2.5-5.9c-2.1-1.7-4.8-2.7-7.7-2.7
			C18.9,6.8,19.9,9,19.5,11.9z"/>
		<path id="XMLID_274_" class="st1" d="M28.8,12.1c-1.1,2.1-4,4.1-4.6,4.5c0.2,0.5,0.3,1.1,0.3,1.7c0,1-0.2,1.9-0.6,2.7
			c2,0.4,5.1-0.4,6.4-0.7c0.1-0.6,0.2-1.3,0.2-2C30.5,16,29.9,13.9,28.8,12.1z"/>
		<path id="XMLID_275_" class="st1" d="M22.4,22.8c-1.1,1.1-2.5,1.7-4.2,1.8c0.9,2.3,2.9,4.3,4.1,5.3c2.8-1,5.1-3.1,6.6-5.6
			C25.8,24.6,23.4,23.4,22.4,22.8z"/>
		<path id="XMLID_276_" class="st1" d="M16.1,24.5c-1.5-0.5-2.8-1.5-3.7-2.8c-1.3,1.5-2.3,4.3-2.8,5.9c2.1,1.9,4.9,3.1,8,3.2
			C16.1,28,16,25.6,16.1,24.5z"/>
		<path id="XMLID_277_" class="st1" d="M11.3,18.2c0-1.1,0.3-2.1,0.7-3c-0.8-0.2-3.2-0.4-6.3,0.5c-0.2,0.8-0.3,1.7-0.3,2.6
			c0,2,0.5,4,1.4,5.7c0.5-1.1,1.8-3,4.7-4.3C11.4,19.1,11.3,18.7,11.3,18.2z"/>
	</g>
</g>
</svg>
